<svg id="Flat" height="512" viewBox="0 0 512 512" width="512" xmlns="http://www.w3.org/2000/svg"><path d="m160 24h72a0 0 0 0 1 0 0v96a0 0 0 0 1 0 0h-48a24 24 0 0 1 -24-24v-72a0 0 0 0 1 0 0z" fill="#df4034" transform="matrix(-1 0 0 -1 392 144)"/><path d="m280 392h72a0 0 0 0 1 0 0v96a0 0 0 0 1 0 0h-48a24 24 0 0 1 -24-24v-72a0 0 0 0 1 0 0z" fill="#7ca540"/><circle cx="256" cy="256" fill="#fdbe10" r="200"/><circle cx="256" cy="256" fill="#ffd91c" r="168"/><path d="m304 488a24 24 0 0 0 24-24v-216l32-32 32 32v216a24 24 0 0 1 -24 24z" fill="#88bf40"/><path d="m208 24a24 24 0 0 0 -24 24v216l-32 32-32-32v-216a24 24 0 0 1 24-24z" fill="#ef5249"/><path d="m296 240v-9.538a30.5 30.5 0 0 0 -30.462-30.462h-1.538v-16h-16v16h-1.538a30.462 30.462 0 0 0 -7.388 60.015l29.971 7.492a14.462 14.462 0 0 1 -3.507 28.493h-19.076a14.478 14.478 0 0 1 -14.462-14.462v-9.538h-16v9.538a30.5 30.5 0 0 0 30.462 30.462h1.538v16h16v-16h1.538a30.462 30.462 0 0 0 7.388-60.015l-29.971-7.492a14.462 14.462 0 0 1 3.507-28.493h19.076a14.478 14.478 0 0 1 14.462 14.462v9.538z" fill="#f0a91e"/><g fill="#ccdce5"><path d="m131.855 461.438a241.281 241.281 0 0 1 -101.2-122.679l15.018-5.518a225.222 225.222 0 0 0 94.473 114.511z"/><path d="m466.329 178.759a224.634 224.634 0 0 0 -140.809-135.759l4.96-15.211a240.62 240.62 0 0 1 150.867 145.452z"/><path d="m310.076 38.568c-5.083-1.258-10.28-2.353-15.446-3.251l2.74-15.763c5.536.962 11.106 2.134 16.554 3.485z"/></g></svg>