<?xml version="1.0" encoding="iso-8859-1"?>
<!-- Generator: Adobe Illustrator 19.0.0, SVG Export Plug-In . SVG Version: 6.00 Build 0)  -->
<svg version="1.1" id="Capa_1" xmlns="http://www.w3.org/2000/svg" xmlns:xlink="http://www.w3.org/1999/xlink" x="0px" y="0px"
	 viewBox="0 0 512 512" style="enable-background:new 0 0 512 512;" xml:space="preserve">
<g>
	<g>
		<g>
			<path d="M320,160H64v96h256V160z M288,224H96v-32h192V224z"/>
			<rect x="64" y="288" width="224" height="32"/>
			<rect x="64" y="352" width="192" height="32"/>
			<path d="M32,128h96V32h224v96h32V0H105.376L0,105.376V512h288v-32H32V128z M96,54.624V96H54.624L96,54.624z"/>
			<rect x="352" y="160" width="32" height="32"/>
			<rect x="352" y="224" width="32" height="32"/>
			<polygon points="416,352 384,352 384,384 352,384 352,416 384,416 384,448 416,448 416,416 448,416 448,384 416,384 			"/>
			<path d="M400,288c-61.856,0-112,50.144-112,112s50.144,112,112,112s112-50.144,112-112C511.93,338.173,461.827,288.07,400,288z
				 M400,480c-44.183,0-80-35.817-80-80c0-44.183,35.817-80,80-80c44.183,0,80,35.817,80,80
				C479.947,444.161,444.161,479.947,400,480z"/>
		</g>
	</g>
</g>
<g>
</g>
<g>
</g>
<g>
</g>
<g>
</g>
<g>
</g>
<g>
</g>
<g>
</g>
<g>
</g>
<g>
</g>
<g>
</g>
<g>
</g>
<g>
</g>
<g>
</g>
<g>
</g>
<g>
</g>
</svg>
